Patient4_TMGait_0pt5_01_right_14_GRF.mot
version=1
nRows=65
nColumns=19
inDegrees=no
endheader
time	F1x	F1y	F1z	M1x	M1y	M1z	F2x	F2y	F2z	M2x	M2y	M2z	EC1x	EC1y	EC1z	EC2x	EC2y	EC2z
18.04	20.3002	779.1021	58.4781	-277.2582	-39.5966	630.1043	5.4224	-6.8887	-7.763	1.3081	0.95381	-12.1251	-0.0592	0.0182	-0.0073	-0.0462	0.0165	0.9585
18.0536	16.473	774.9821	60.5702	-275.7676	-41.5063	622.7624	3.4863	-3.8749	-5.269	1.1676	0.67491	-7.398	-0.0592	0.0182	-0.0073	-0.0462	0.0165	0.9585
18.0673	13.6178	770.5563	62.2975	-274.0674	-42.8466	614.964	1.8511	-1.2966	-3.17	1.0612	0.48682	-3.3909	-0.0592	0.0182	-0.0073	-0.0462	0.0165	0.9585
18.0809	11.8985	766.2792	63.5263	-272.3214	-43.5088	607.2362	0.60164	0.70253	-1.5839	0.99725	0.37918	-0.31717	-0.0592	0.0182	-0.0073	-0.0462	0.0165	0.9585
18.0946	11.2301	762.5313	64.2304	-270.6876	-43.5163	599.9502	-0.26805	2.1187	-0.50643	0.97186	0.33858	1.8357	-0.0592	0.0182	-0.0073	-0.0462	0.0165	0.9585
18.1082	11.4111	759.5225	64.448	-269.2737	-42.962	593.288	-0.80895	3.0204	0.13873	0.97302	0.34637	3.183	-0.0592	0.0182	-0.0073	-0.0462	0.0165	0.9585
18.1219	12.2089	757.2858	64.2635	-268.1223	-41.9768	587.2674	-1.1099	3.5079	0.45271	0.98467	0.39107	3.8987	-0.0592	0.0182	-0.0073	-0.0462	0.0165	0.9585
18.1355	13.4308	755.6928	63.7795	-267.2115	-40.6877	581.7595	-1.2435	3.6577	0.53742	0.9827	0.45375	4.1193	-0.0592	0.0182	-0.0073	-0.0462	0.0165	0.9585
18.1491	14.9327	754.5009	63.1085	-266.4697	-39.2115	576.5442	-1.2836	3.521	0.4911	0.93767	0.51417	3.9635	-0.0592	0.0182	-0.0073	-0.0462	0.0165	0.9585
18.1628	16.6486	753.4241	62.3446	-265.8013	-37.631	571.3734	-1.2802	3.0998	0.38687	0.81289	0.56297	3.4886	-0.0592	0.0182	-0.0073	-0.0462	0.0165	0.9585
18.1764	18.5693	752.1864	61.569	-265.1048	-36.0025	566.0362	-1.2591	2.3475	0.28103	0.56604	0.58945	2.686	-0.0592	0.0182	-0.0073	-0.0462	0.0165	0.9585
18.1901	20.724	750.5711	60.8449	-264.2939	-34.358	560.3738	-1.2351	1.2021	0.19949	0.15891	0.59336	1.5275	-0.0592	0.0182	-0.0073	-0.0462	0.0165	0.9585
18.2037	23.1503	748.4759	60.2276	-263.3182	-32.7195	554.3067	-1.1887	-0.39514	0.15935	-0.43639	0.56292	-0.034557	-0.0592	0.0182	-0.0073	-0.0462	0.0165	0.9585
18.2174	25.8758	745.9395	59.7692	-262.1767	-31.107	547.8573	-1.101	-2.4406	0.1625	-1.2209	0.48986	-1.9847	-0.0592	0.0182	-0.0073	-0.0462	0.0165	0.9585
18.231	28.9094	743.1216	59.5111	-260.9164	-29.5423	541.1419	-0.92714	-4.825	0.21372	-2.1504	0.35053	-4.2225	-0.0592	0.0182	-0.0073	-0.0462	0.0165	0.9585
18.2446	32.2331	740.2446	59.4824	-259.6117	-28.0449	534.3313	-0.6085	-7.2483	0.30909	-3.1039	0.12275	-6.4788	-0.0592	0.0182	-0.0073	-0.0462	0.0165	0.9585
18.2583	35.8155	737.4801	59.6853	-258.3258	-26.621	527.5635	-0.090621	-9.1367	0.44333	-3.8505	-0.21118	-8.2311	-0.0592	0.0182	-0.0073	-0.0462	0.0165	0.9585
18.2719	39.5879	734.8486	60.0975	-257.0687	-25.2728	520.8905	0.68515	-9.5612	0.59337	-4.015	-0.65084	-8.6362	-0.0592	0.0182	-0.0073	-0.0462	0.0165	0.9585
18.2856	43.4453	732.136	60.6743	-255.7652	-24.0029	514.2268	1.7425	-7.1636	0.72661	-3.0534	-1.1727	-6.4428	-0.0592	0.0182	-0.0073	-0.0462	0.0165	0.9585
18.2992	47.2299	728.848	61.351	-254.2439	-22.8224	507.3229	3.0496	-0.15447	0.78876	-0.25216	-1.7077	-0.0032333	-0.0592	0.0182	-0.0073	-0.0462	0.0165	0.9585
18.3129	50.7394	724.2013	62.0392	-252.2353	-21.7478	499.7626	4.4746	13.5934	0.70112	5.2359	-2.1191	12.6476	-0.0592	0.0182	-0.0073	-0.0462	0.0165	0.9585
18.3265	53.7577	717.1372	62.5973	-249.3782	-20.7699	490.9417	5.7401	36.2796	0.35092	14.2856	-2.1829	33.5439	-0.0592	0.0182	-0.0073	-0.0462	0.0165	0.9585
18.3401	56.0564	706.3957	62.832	-245.2452	-19.8573	480.1263	6.337	69.6809	-0.4054	27.6033	-1.5589	64.3258	-0.0592	0.0182	-0.0073	-0.0462	0.0165	0.9585
18.3538	57.4391	690.6373	62.4844	-239.3872	-18.9295	466.5166	5.3473	114.4381	-1.7032	45.4391	0.23702	105.6022	-0.0592	0.0182	-0.0073	-0.0462	0.0165	0.9585
18.3674	57.7487	668.6085	61.2801	-231.3956	-17.886	449.3446	1.6654	169.0473	-3.6636	67.1906	3.7327	156.0021	-0.0592	0.0182	-0.0073	-0.0462	0.0165	0.9585
18.3811	56.898	639.4213	58.9728	-220.9952	-16.6149	428.0443	-4.9751	229.4678	-6.3857	91.2346	9.0928	211.7808	-0.0592	0.0182	-0.0073	-0.0462	0.0165	0.9585
18.3947	54.9094	602.8145	55.4539	-208.1268	-15.0488	402.3875	-13.6433	290.3804	-10.1842	115.4262	16.2091	267.903	-0.0592	0.0182	-0.0073	-0.0462	0.0165	0.9585
18.4084	51.8741	559.2247	50.8142	-192.9551	-13.2103	372.5737	-23.0793	348.2921	-14.8774	138.362	24.3778	320.9165	-0.0592	0.0182	-0.0073	-0.0462	0.0165	0.9585
18.422	47.8983	509.5373	45.3534	-175.7766	-11.2386	339.0858	-32.0782	402.2347	-20.0429	159.6574	32.7227	369.741	-0.0592	0.0182	-0.0073	-0.0462	0.0165	0.9585
18.4356	43.0726	454.9327	39.4559	-156.9704	-9.3265	302.6158	-39.6955	452.2978	-25.1624	179.3704	40.395	414.3513	-0.0592	0.0182	-0.0073	-0.0462	0.0165	0.9585
18.4493	37.471	396.929	33.4558	-137.0272	-7.6312	264.0939	-45.3683	498.7486	-29.8807	197.6208	46.8546	454.9593	-0.0592	0.0182	-0.0073	-0.0462	0.0165	0.9585
18.4629	31.1772	337.3739	27.6255	-116.552	-6.2734	224.6718	-48.852	541.7223	-33.9178	214.4698	51.7581	491.6859	-0.0592	0.0182	-0.0073	-0.0462	0.0165	0.9585
18.4766	24.3055	278.3661	22.1638	-96.2428	-5.325	185.6825	-50.2539	581.3001	-37.3288	229.9308	55.2075	524.683	-0.0592	0.0182	-0.0073	-0.0462	0.0165	0.9585
18.4902	17.0847	222.0937	17.2483	-76.8395	-4.8192	148.5208	-49.9387	617.5539	-40.2592	244.0046	57.4802	554.1304	-0.0592	0.0182	-0.0073	-0.0462	0.0165	0.9585
18.5039	9.9147	170.6264	13.0166	-59.0538	-4.7091	114.5087	-48.4304	650.5278	-43.0029	256.6752	59.0477	580.2123	-0.0592	0.0182	-0.0073	-0.0462	0.0165	0.9585
18.5175	3.3413	125.6141	9.5379	-43.4657	-4.8527	84.7	-46.2941	680.1832	-45.7297	267.9044	60.2789	603.0388	-0.0592	0.0182	-0.0073	-0.0462	0.0165	0.9585
18.5311	-2.0653	87.9509	6.7974	-30.4045	-5.0494	59.6665	-43.997	706.3762	-48.5779	277.6288	61.4815	622.5915	-0.0592	0.0182	-0.0073	-0.0462	0.0165	0.9585
18.5448	-5.8985	57.7605	4.6902	-19.9324	-5.0895	39.5005	-41.8431	728.979	-51.4528	285.8143	62.6957	638.8403	-0.0592	0.0182	-0.0073	-0.0462	0.0165	0.9585
18.5584	-7.9678	34.5938	3.1073	-11.9023	-4.8398	23.9181	-39.9435	747.8638	-54.173	292.447	63.823	651.7253	-0.0592	0.0182	-0.0073	-0.0462	0.0165	0.9585
18.5721	-8.3318	17.6937	1.9158	-6.0524	-4.2314	12.445	-38.2944	762.8376	-56.4634	297.4996	64.6404	661.1169	-0.0592	0.0182	-0.0073	-0.0462	0.0165	0.9585
18.5857	-7.4061	6.1852	1.0507	-2.0776	-3.3713	4.5317	-36.8193	773.6176	-58.1285	300.9122	64.9699	666.8	-0.0592	0.0182	-0.0073	-0.0462	0.0165	0.9585
18.5994	-5.8661	-0.86123	0.46518	0.3462	-2.4623	-0.39591	-35.3862	780.003	-59.0307	302.655	64.6644	668.6202	-0.0592	0.0182	-0.0073	-0.0462	0.0165	0.9585
18.613	-4.2139	-4.524	0.12462	1.5931	-1.6656	-3.0108	-33.8612	782.0888	-59.1078	302.8089	63.6394	666.6682	-0.0592	0.0182	-0.0073	-0.0462	0.0165	0.9585
18.6266	-2.7319	-5.8515	-0.047835	2.0311	-1.0299	-4.001	-32.126	780.4091	-58.3506	301.6177	61.8596	661.3918	-0.0592	0.0182	-0.0073	-0.0462	0.0165	0.9585
18.6403	-1.5461	-5.7345	-0.096874	1.9745	-0.57607	-3.9761	-30.1096	775.901	-56.8221	299.4693	59.3619	653.5837	-0.0592	0.0182	-0.0073	-0.0462	0.0165	0.9585
18.6539	-0.67967	-4.8558	-0.078456	1.6595	-0.27528	-3.404	-27.7992	769.7255	-54.6752	296.8212	56.2763	644.2261	-0.0592	0.0182	-0.0073	-0.0462	0.0165	0.9585
18.6676	-0.10223	-3.6853	-0.02127	1.2481	-0.10193	-2.601	-25.2291	763.0781	-52.1152	294.1256	52.7902	634.3241	-0.0592	0.0182	-0.0073	-0.0462	0.0165	0.9585
18.6812	0.24518	-2.514	0.04198	0.84007	-0.014694	-1.7705	-22.4706	757.0141	-49.3849	291.7614	49.1328	624.7746	-0.0592	0.0182	-0.0073	-0.0462	0.0165	0.9585
18.6949	0.42522	-1.4956	0.096804	0.48812	0.014417	-1.0294	-19.5955	752.3283	-46.7072	289.9976	45.5111	616.2631	-0.0592	0.0182	-0.0073	-0.0462	0.0165	0.9585
18.7085	0.49126	-0.69071	0.13065	0.2127	0.013409	-0.43327	-16.6742	749.5222	-44.2805	288.9887	42.1079	609.232	-0.0592	0.0182	-0.0073	-0.0462	0.0165	0.9585
18.7221	0.49048	-0.098229	0.14387	0.013598	-0.0028506	0.014948	-13.7764	748.7913	-42.2509	288.7754	39.0572	603.8679	-0.0592	0.0182	-0.0073	-0.0462	0.0165	0.9585
18.7358	0.44832	0.30826	0.13879	-0.11712	-0.023328	0.33338	-10.949	750.0123	-40.7239	289.2866	36.4506	600.0838	-0.0592	0.0182	-0.0073	-0.0462	0.0165	0.9585
18.7494	0.38369	0.56153	0.12052	-0.1911	-0.039751	0.53971	-8.217	752.8155	-39.7405	290.3647	34.314	597.5853	-0.0592	0.0182	-0.0073	-0.0462	0.0165	0.9585
18.7631	0.30239	0.68739	0.098534	-0.21864	-0.053513	0.65072	-5.5582	756.6505	-39.2752	291.7934	32.602	595.9206	-0.0592	0.0182	-0.0073	-0.0462	0.0165	0.9585
18.7767	0.20539	0.69867	0.082652	-0.20591	-0.071257	0.66929	-2.937	760.8442	-39.2483	293.3173	31.2269	594.5591	-0.0592	0.0182	-0.0073	-0.0462	0.0165	0.9585
18.7904	0.09379	0.58587	0.083591	-0.15093	-0.10574	0.58004	-0.3305	764.6449	-39.5338	294.6555	30.0798	592.934	-0.0592	0.0182	-0.0073	-0.0462	0.0165	0.9585
18.804	-0.034054	0.32493	0.10642	-0.045965	-0.16659	0.35458	2.2722	767.2997	-39.9929	295.5275	29.0543	590.4946	-0.0592	0.0182	-0.0073	-0.0462	0.0165	0.9585
18.8176	-0.17231	-0.12039	0.15734	0.12408	-0.26084	-0.046957	4.8328	768.1762	-40.4865	295.6951	28.0617	586.8163	-0.0592	0.0182	-0.0073	-0.0462	0.0165	0.9585
18.8313	-0.30988	-0.79061	0.23265	0.37565	-0.37932	-0.67145	7.2736	766.8927	-40.896	295.0106	27.0478	581.6853	-0.0592	0.0182	-0.0073	-0.0462	0.0165	0.9585
18.8449	-0.41776	-1.7138	0.33158	0.72022	-0.50881	-1.5485	9.4758	763.3666	-41.1448	293.4321	26.0042	575.1258	-0.0592	0.0182	-0.0073	-0.0462	0.0165	0.9585
18.8586	-0.45007	-2.8698	0.43537	1.1516	-0.61349	-2.6621	11.3065	757.8714	-41.2314	291.0453	24.9801	567.4263	-0.0592	0.0182	-0.0073	-0.0462	0.0165	0.9585
18.8722	-0.34638	-4.1651	0.52729	1.6355	-0.65578	-3.9222	12.6899	751.0725	-41.2159	288.0819	24.0445	559.1317	-0.0592	0.0182	-0.0073	-0.0462	0.0165	0.9585
18.8859	-0.021073	-5.392	0.56761	2.0919	-0.56929	-5.1331	13.6342	743.9455	-41.2148	284.8922	23.2758	550.9739	-0.0592	0.0182	-0.0073	-0.0462	0.0165	0.9585
18.8995	0.62909	-6.1836	0.50903	2.3796	-0.27028	-5.9496	14.2597	737.5815	-41.3629	281.8754	22.7257	543.7066	-0.0592	0.0182	-0.0073	-0.0462	0.0165	0.9585
18.9131	1.7107	-5.9666	0.275	2.2766	0.35419	-5.8408	14.756	732.9877	-41.806	279.4047	22.4275	537.982	-0.0592	0.0182	-0.0073	-0.0462	0.0165	0.9585
